<svg width="50" height="50" viewBox="0 0 50 50" fill="none" xmlns="http://www.w3.org/2000/svg">
<rect x="14.092" y="9.674" width="7.753" height="13.761" rx="0.2" fill="#FAFAFA"/>
<rect x="28.155" y="9.674" width="7.753" height="13.761" rx="0.2" fill="#FAFAFA"/>
<rect x="1.593" y="18.887" width="12.440" height="4.547" rx="0.2" fill="#FAFAFA"/>
<rect x="35.968" y="18.887" width="12.440" height="4.547" rx="0.2" fill="#FAFAFA"/>
<rect x="0.030" y="23.494" width="7.753" height="4.547" rx="0.2" fill="#FAFAFA"/>
<rect x="15.655" y="23.494" width="7.753" height="9.154" rx="0.2" fill="#FAFAFA"/>
<rect x="26.593" y="23.494" width="7.753" height="9.154" rx="0.2" fill="#FAFAFA"/>
<rect x="42.218" y="23.494" width="7.753" height="4.547" rx="0.2" fill="#FAFAFA"/>
<rect x="1.593" y="28.101" width="7.753" height="4.547" rx="0.2" fill="#FAFAFA"/>
<rect x="40.655" y="28.101" width="7.753" height="4.547" rx="0.2" fill="#FAFAFA"/>
<rect x="3.155" y="32.708" width="18.690" height="4.547" rx="0.2" fill="#FAFAFA"/>
<rect x="28.155" y="32.708" width="18.690" height="4.547" rx="0.2" fill="#FAFAFA"/>
</svg>